<?xml version="1.0" encoding="utf-8"?>
<!-- Generator: Adobe Illustrator 16.0.0, SVG Export Plug-In . SVG Version: 6.00 Build 0)  -->
<!DOCTYPE svg PUBLIC "-//W3C//DTD SVG 1.1//EN" "http://www.w3.org/Graphics/SVG/1.1/DTD/svg11.dtd">
<svg version="1.1" id="Layer_1" xmlns="http://www.w3.org/2000/svg" xmlns:xlink="http://www.w3.org/1999/xlink" x="0px" y="0px"
	 width="98.109px" height="32.146px" viewBox="0 4.74 98.109 32.146" enable-background="new 0 4.74 98.109 32.146"
	 xml:space="preserve">
<symbol  id="New_Symbol_2" viewBox="-384.945 -126.129 769.891 252.258">
	<polygon fill="#D20728" points="-384.945,126.129 -384.945,-126.129 384.945,-126.129 384.945,126.129 -384.945,126.129 	"/>
	<polygon fill="#EFE300" points="-320.371,-16.627 -357.146,-9.452 -341.001,96.609 -302.882,96.609 -284.27,58.491 
		-264.762,96.609 -229.109,96.609 -211.621,-9.452 -247.272,-16.627 -255.121,32.256 -284.383,-15.541 -313.34,32.592 
		-320.371,-16.627 	"/>
	<polygon fill="#EFE300" points="-120.052,-16.627 -156.827,-9.452 -140.682,96.609 -102.562,96.609 -83.95,58.491 -64.442,96.609 
		-28.791,96.609 -11.3,-9.452 -46.954,-16.627 -54.801,32.256 -84.064,-15.541 -113.021,32.592 -120.052,-16.627 	"/>
	<polygon fill="#EFE300" points="32.342,-16.627 -4.435,-9.452 11.711,96.609 49.832,96.609 68.445,58.491 87.953,96.609 
		123.605,96.609 141.092,-9.452 105.439,-16.627 97.592,32.256 68.328,-15.541 39.371,32.592 32.342,-16.627 	"/>
	<polygon fill="#EFE300" points="-162.744,-16.627 -204.621,-16.627 -204.621,96.609 -162.744,96.609 -162.744,-16.627 	"/>
	<path fill="#EFE300" d="M196.551,100.213c-31.061,0-56.246-26.473-56.246-59.123c0-32.646,25.186-59.117,56.246-59.117
		c31.062,0,56.246,26.471,56.246,59.117C252.797,73.74,227.613,100.213,196.551,100.213L196.551,100.213z M196.551,18.434
		c-11.904,0-21.557,10.146-21.557,22.658c0,12.514,9.652,22.66,21.557,22.66c11.906,0,21.559-10.146,21.559-22.66
		C218.109,28.579,208.457,18.434,196.551,18.434L196.551,18.434z"/>
	<path fill="#EFE300" d="M338.531,92.001l-1.236-25.214c0,0-17.098,10.407-31.594,8.178c-14.496-2.23-17.84-12.824-9.85-15.426
		c7.992-2.602,23.23-7.062,29.549-11.336s18.398-13.381,15.053-35.496c-3.344-22.115-38.84-36.053-81.398-25.46l1.301,29.733
		c0,0,16.799-10.838,35.682-5.203c16.82,5.019,7.992,11.244-1.672,15.054c-6.072,2.393-31.779,9.664-35.311,24.531
		s-3.809,31.222,22.115,43.208C309.123,107.494,338.531,92.001,338.531,92.001L338.531,92.001z"/>
	<path fill="#EFE300" d="M350.074,97.85c1.961,0,3.605-0.699,4.98-2.081c1.385-1.369,2.092-3.032,2.092-4.987
		c0-1.932-0.707-3.588-2.092-4.982c-1.375-1.396-3.02-2.086-4.98-2.086c-1.938,0-3.6,0.689-4.992,2.086
		c-1.387,1.395-2.078,3.051-2.078,4.982c0,1.955,0.682,3.618,2.043,4.987C346.445,97.15,348.111,97.85,350.074,97.85L350.074,97.85z
		 M350.074,84.639c1.697,0,3.146,0.595,4.344,1.799c1.193,1.199,1.797,2.646,1.797,4.344c0,1.694-0.604,3.144-1.797,4.357
		c-1.197,1.195-2.646,1.793-4.344,1.793c-1.699,0-3.15-0.598-4.35-1.793c-1.201-1.214-1.805-2.663-1.805-4.357
		c0-1.697,0.604-3.145,1.805-4.344C346.924,85.233,348.375,84.639,350.074,84.639L350.074,84.639z M353.221,92.723
		c0-0.795-0.527-1.323-1.555-1.59c0.973-0.164,1.443-0.656,1.443-1.479c0-0.023,0-0.075,0-0.146
		c-0.021-0.069-0.041-0.123-0.041-0.173v-0.147c0-0.277,0.092-0.428,0.256-0.428h0.203c0.055,0.038,0.121,0.044,0.215,0.044
		c0.369,0,0.543-0.235,0.543-0.708c0-0.516-0.273-0.775-0.791-0.775h-0.35c-0.117,0.025-0.25,0.039-0.391,0.039
		c-0.16,0-0.301-0.014-0.42-0.039h-0.35c-0.574,0-0.848,0.392-0.848,1.162v0.116l0.029,0.665c0,0.68-0.451,1.023-1.344,1.023
		c-0.283,0-0.424-0.182-0.424-0.559v-0.257c0-0.485,0.09-0.737,0.285-0.737c0.043,0,0.129,0.013,0.244,0.025
		c0.055,0.038,0.123,0.044,0.248,0.044c0.326,0,0.488-0.235,0.488-0.708c0-0.516-0.236-0.775-0.736-0.775
		c-0.285,0-0.521,0.012-0.701,0.039c-0.412,0.043-0.668,0.069-0.781,0.069c-0.102,0-0.35-0.026-0.775-0.069
		c-0.209-0.027-0.465-0.039-0.746-0.039c-0.543,0-0.818,0.26-0.818,0.775c0,0.473,0.193,0.708,0.574,0.708
		c0.07,0,0.162-0.006,0.275-0.044c0.123-0.013,0.213-0.025,0.285-0.025c0.162,0,0.256,0.252,0.256,0.737v2.974
		c0,0.492-0.102,0.74-0.291,0.74c-0.025,0-0.055,0-0.107,0c-0.039-0.023-0.102-0.043-0.174-0.076c-0.049,0-0.123,0-0.244,0
		c-0.381,0-0.574,0.237-0.574,0.712c0,0.521,0.256,0.772,0.748,0.772h0.102l0.781-0.064c0.119-0.025,0.344-0.035,0.674-0.035
		c0.447,0,0.988,0.023,1.621,0.072c0.33,0.027,0.65,0.027,0.961,0.027C352.467,94.594,353.221,93.976,353.221,92.723L353.221,92.723
		z M350.176,93.186c-0.354,0-0.574-0.043-0.668-0.148c-0.082-0.061-0.109-0.197-0.109-0.379v-0.637c0-0.285,0.141-0.423,0.424-0.423
		c0.914,0,1.377,0.278,1.377,0.847C351.199,92.938,350.865,93.186,350.176,93.186L350.176,93.186z"/>
	<path fill="#FFFFFF" d="M-4.51-82.197l6.266-6.312C-1.838-92.619-5.5-95.601-9.231-97.44c-3.742-1.849-7.764-2.772-12.098-2.772
		c-6.95,0-12.807,2.357-17.554,7.064c-4.757,4.711-7.129,10.399-7.129,17.072c0,4.396,1.064,8.406,3.2,12.045
		c2.131,3.642,5.089,6.501,8.871,8.558c3.772,2.059,8.055,3.087,12.838,3.087c3.05,0,5.82-0.437,8.319-1.321
		c2.51-0.889,4.691-2.155,6.573-3.79c1.867-1.658,3.371-3.65,4.518-5.967c1.15-2.332,1.934-4.757,2.361-7.257
		c0.184-1.248,0.27-3.224,0.27-5.947h-30.77c0.067-3.867,1.2-6.998,3.415-9.39c2.202-2.391,4.904-3.591,8.103-3.591
		c2.044,0,4.273,0.619,6.675,1.856C-9.231-86.568-6.844-84.689-4.51-82.197L-4.51-82.197z M-13.652-68.977
		c-0.21,1.817-0.644,3.262-1.294,4.317c-0.665,1.049-1.548,1.889-2.673,2.509c-1.119,0.616-2.28,0.944-3.495,0.944
		c-1.288,0-2.533-0.328-3.715-0.964c-1.201-0.646-2.152-1.516-2.867-2.605c-0.719-1.103-1.187-2.506-1.4-4.201H-13.652
		L-13.652-68.977z"/>
	<path fill="#FFFFFF" d="M36.09-71.45v3.379c0,2.014-0.162,3.404-0.502,4.165c-0.328,0.754-0.936,1.391-1.816,1.891
		c-0.891,0.517-1.992,0.755-3.297,0.755c-1.016,0-1.928-0.165-2.75-0.499c-0.816-0.337-1.467-0.756-1.967-1.278
		c-0.48-0.52-1.053-1.528-1.686-3.02c-0.82-1.886-1.811-3.241-2.951-4.063c-1.143-0.827-2.486-1.248-4.041-1.248
		c-1.953,0-3.557,0.624-4.803,1.829c-1.246,1.229-1.883,2.741-1.883,4.53c0,2.044,0.656,3.861,1.93,5.448
		c1.707,2.104,4.252,3.826,7.627,5.164c3.395,1.34,7.195,2.011,11.438,2.011c4.23,0,7.836-0.681,10.814-2.057
		c2.973-1.369,5.037-3.014,6.219-4.904c1.17-1.913,1.754-4.826,1.754-8.724v-16.359c0-2.016,0.113-3.298,0.314-3.865
		c0.215-0.569,0.676-1.056,1.371-1.495c0.715-0.418,1.49-0.63,2.338-0.63c0.861,0,1.998,0.235,3.438,0.726v-8.912
		c-2.607-0.815-5.082-1.236-7.461-1.236c-2.801,0-5.191,0.462-7.186,1.371c-1.975,0.92-3.627,2.291-4.971,4.116
		c-3.053-1.979-5.816-3.391-8.297-4.235c-2.488-0.831-4.885-1.252-7.199-1.252c-4.369,0-7.877,1.228-10.562,3.69
		c-2.689,2.451-4.027,5.466-4.027,9.066c0,2.038,0.469,3.914,1.393,5.621c0.93,1.708,2.32,3.206,4.162,4.475
		c1.834,1.289,4.697,2.425,8.549,3.415C25.898-72.592,30.576-71.88,36.09-71.45L36.09-71.45z M36.09-79.035
		c-3.982-0.587-6.805-1.176-8.453-1.766c-1.643-0.592-2.818-1.341-3.521-2.239c-0.697-0.9-1.045-1.823-1.045-2.77
		c0-1.223,0.455-2.239,1.357-3.066c0.932-0.819,2.164-1.226,3.711-1.226c1.004,0,2.168,0.25,3.494,0.775
		c1.342,0.518,2.814,1.277,4.457,2.279V-79.035L36.09-79.035z"/>
	<path fill="#FFFFFF" d="M83.332-37.793v-15.695h14.717v-9.729H83.332v-15.919c0-3.586,0.174-5.897,0.564-6.922
		c0.385-1.028,1.092-1.836,2.125-2.451c1.373-0.816,2.947-1.227,4.711-1.227c3.139,0,6.26,1.017,9.369,3.059v-9.783
		c-2.635-1.246-5.047-2.131-7.193-2.628c-2.156-0.494-4.488-0.755-6.975-0.755c-2.84,0-5.346,0.354-7.512,1.077
		c-2.191,0.712-4.049,1.736-5.588,3.066c-1.535,1.315-2.604,2.732-3.207,4.223c-0.594,1.486-0.881,3.655-0.881,6.495v21.765h-6.867
		v8.774c2.443,0.787,4.527,1.932,6.275,3.403c1.732,1.481,3.127,3.253,4.182,5.326c1.051,2.082,1.777,4.71,2.166,7.921H83.332
		L83.332-37.793z"/>
	<path fill="#FFFFFF" d="M133.479-71.45v3.379c0,2.014-0.178,3.404-0.506,4.165c-0.328,0.754-0.955,1.391-1.824,1.891
		c-0.875,0.517-1.986,0.755-3.289,0.755c-1.008,0-1.916-0.165-2.748-0.499c-0.816-0.337-1.48-0.756-1.971-1.278
		c-0.479-0.52-1.043-1.528-1.686-3.02c-0.82-1.886-1.799-3.241-2.949-4.063c-1.15-0.827-2.488-1.248-4.051-1.248
		c-1.939,0-3.543,0.624-4.785,1.829c-1.258,1.229-1.879,2.741-1.879,4.53c0,2.044,0.627,3.861,1.914,5.448
		c1.701,2.104,4.248,3.826,7.637,5.164c3.389,1.34,7.189,2.011,11.426,2.011s7.852-0.681,10.809-2.057
		c2.979-1.369,5.049-3.014,6.225-4.904c1.178-1.913,1.758-4.826,1.758-8.724v-16.359c0-2.016,0.113-3.298,0.316-3.865
		c0.221-0.569,0.67-1.056,1.377-1.495c0.705-0.418,1.486-0.63,2.334-0.63s2,0.235,3.43,0.726v-8.912
		c-2.6-0.815-5.078-1.236-7.457-1.236c-2.801,0-5.201,0.462-7.182,1.371c-1.975,0.92-3.645,2.291-4.979,4.116
		c-3.047-1.979-5.818-3.391-8.299-4.235c-2.486-0.831-4.889-1.252-7.199-1.252c-4.357,0-7.879,1.228-10.559,3.69
		c-2.686,2.451-4.025,5.466-4.025,9.066c0,2.038,0.459,3.914,1.391,5.621c0.93,1.708,2.32,3.206,4.158,4.475
		c1.84,1.289,4.703,2.425,8.561,3.415C123.283-72.592,127.955-71.88,133.479-71.45L133.479-71.45z M133.479-79.035
		c-3.99-0.587-6.811-1.176-8.457-1.766c-1.646-0.592-2.824-1.341-3.52-2.239c-0.699-0.9-1.047-1.823-1.047-2.77
		c0-1.223,0.447-2.239,1.359-3.066c0.926-0.819,2.156-1.226,3.707-1.226c1.008,0,2.178,0.25,3.5,0.775
		c1.322,0.518,2.807,1.277,4.457,2.279V-79.035L133.479-79.035z"/>
	<path fill="#FFFFFF" d="M180.611-31.997v-53.499c0-1.798,0.074-2.86,0.24-3.188c0.211-0.613,0.682-1.053,1.41-1.327
		c0.459-0.184,1.684-0.285,3.695-0.285h1.604v-8.813H159.26v8.813h1.742c1.828,0,3,0.122,3.512,0.351
		c0.527,0.219,0.906,0.599,1.156,1.102c0.234,0.499,0.367,1.617,0.367,3.348v40.784h-6.777v8.83
		c5.459,0.369,11.096,1.667,16.928,3.885H180.611L180.611-31.997z"/>
	<path fill="#FFFFFF" d="M213.443-52.387v-33.792c0-1.603,0.084-2.599,0.271-2.964c0.188-0.369,0.516-0.648,0.982-0.849
		c0.473-0.203,1.531-0.305,3.18-0.305h2.475v-8.813h-28.248v8.813h2.412c1.576,0,2.594,0.09,3.043,0.264
		c0.438,0.166,0.768,0.439,0.98,0.839c0.213,0.398,0.326,1.186,0.326,2.388v21.796h-6.762v8.595c2.4,0.122,4.697,0.386,6.916,0.775
		c2.207,0.41,4.182,0.883,5.922,1.418c1.131,0.371,2.51,0.986,4.158,1.835H213.443L213.443-52.387z M206.037-31.997
		c2.303,0,4.287-0.819,5.918-2.445c1.629-1.632,2.455-3.608,2.455-5.926c0-2.335-0.826-4.333-2.455-5.959
		c-1.631-1.635-3.615-2.448-5.918-2.448c-2.312,0-4.289,0.813-5.934,2.448c-1.613,1.626-2.436,3.607-2.436,5.924
		c0,2.282,0.838,4.251,2.516,5.915C201.861-32.816,203.814-31.997,206.037-31.997L206.037-31.997z"/>
	<path fill="#FFFFFF" d="M253.303-71.45v3.379c0,2.014-0.154,3.404-0.498,4.165c-0.334,0.754-0.941,1.391-1.822,1.891
		c-0.889,0.517-1.982,0.755-3.303,0.755c-1,0-1.914-0.165-2.736-0.499c-0.826-0.337-1.479-0.756-1.977-1.278
		c-0.479-0.52-1.041-1.528-1.674-3.02c-0.828-1.886-1.809-3.241-2.953-4.063c-1.156-0.827-2.506-1.248-4.049-1.248
		c-1.951,0-3.557,0.624-4.805,1.829c-1.258,1.229-1.867,2.741-1.867,4.53c0,2.044,0.641,3.861,1.918,5.448
		c1.699,2.104,4.25,3.826,7.637,5.164c3.373,1.34,7.191,2.011,11.428,2.011c4.225,0,7.85-0.681,10.814-2.057
		c2.973-1.369,5.043-3.014,6.213-4.904c1.176-1.913,1.766-4.826,1.766-8.724v-16.359c0-2.016,0.1-3.298,0.314-3.865
		c0.215-0.569,0.672-1.056,1.375-1.495c0.701-0.418,1.482-0.63,2.326-0.63c0.857,0,2.008,0.235,3.436,0.726v-8.912
		c-2.594-0.815-5.078-1.236-7.451-1.236c-2.809,0-5.199,0.462-7.178,1.371c-1.977,0.92-3.646,2.291-4.982,4.116
		c-3.057-1.979-5.826-3.391-8.299-4.235c-2.49-0.831-4.896-1.252-7.211-1.252c-4.348,0-7.869,1.228-10.553,3.69
		c-2.682,2.451-4.029,5.466-4.029,9.066c0,2.038,0.473,3.914,1.391,5.621c0.941,1.708,2.322,3.206,4.16,4.475
		c1.85,1.289,4.699,2.425,8.561,3.415C243.102-72.592,247.783-71.88,253.303-71.45L253.303-71.45z M253.303-79.035
		c-3.992-0.587-6.818-1.176-8.453-1.766c-1.635-0.592-2.816-1.341-3.512-2.239c-0.707-0.9-1.072-1.823-1.072-2.77
		c0-1.223,0.475-2.239,1.387-3.066c0.918-0.819,2.146-1.226,3.709-1.226c0.99,0,2.166,0.25,3.496,0.775
		c1.318,0.518,2.799,1.277,4.445,2.279V-79.035L253.303-79.035z"/>
	<path fill="#FFFFFF" d="M300.262-52.387v-6.084c3.439,2.352,6.393,3.945,8.846,4.803c2.451,0.854,4.963,1.281,7.523,1.281
		c2.959,0,5.57-0.633,7.844-1.876c2.266-1.252,3.92-2.809,4.963-4.693c1.029-1.875,1.547-4.521,1.547-7.976v-19.018
		c0-1.62,0.119-2.65,0.344-3.109c0.234-0.453,0.584-0.793,1.07-0.993c0.369-0.157,1.465-0.244,3.293-0.244h2.242v-8.813h-26.838
		v8.813c2.039,0.029,3.195,0.087,3.434,0.142c0.758,0.222,1.258,0.562,1.508,1.055c0.246,0.487,0.367,1.53,0.367,3.147v16.761
		c0,2.146-0.229,3.549-0.686,4.19c-0.734,1.074-1.889,1.594-3.482,1.594c-1.314,0-2.711-0.285-4.199-0.868
		c-1.5-0.581-3.514-1.763-6.035-3.56v-18.117c0-1.977,0.215-3.19,0.643-3.649c0.426-0.45,1.455-0.694,3.092-0.694h1.469v-8.813
		H280.66v8.813h1.314c2.105,0,3.4,0.102,3.91,0.285c0.5,0.174,0.881,0.489,1.148,0.952c0.24,0.459,0.375,1.364,0.375,2.686v21.271
		h-6.748v8.827c5.461,0.683,10.59,1.98,15.355,3.889H300.262L300.262-52.387z"/>
</symbol>
<use xlink:href="#New_Symbol_2"  width="769.891" height="252.258" x="-384.945" y="-126.129" transform="matrix(0.1274 0 0 -0.1274 49.0547 20.813)" overflow="visible"/>
</svg>
